<svg xmlns="http://www.w3.org/2000/svg" width="300" height="40" viewBox="0 0 300 40">
  <g fill="none" fill-rule="evenodd" transform="translate(.13 -.175)">
    <path fill="#90E532" fill-rule="nonzero" d="M20.9987559,34.284211 C20.9987559,36.377812 19.3015571,38.0750109 17.2079561,38.0750109 C15.1143552,38.0750109 13.4171563,36.377812 13.4171563,34.284211 C13.4171563,27.3898927 9.18617969,23.4448928 3.93768883,23.4448928 C1.8440879,23.4448928 0.146889016,21.747694 0.146889016,19.654093 C0.146889016,17.5604921 1.8440879,15.8632932 3.93768883,15.8632932 C13.2594093,15.8632932 20.9987559,23.0795281 20.9987559,34.284211 Z" transform="rotate(180 10.573 26.97)"/>
    <path fill="#009EF9" fill-rule="nonzero" d="M38.3802491,19.4388094 C38.3802491,21.5324104 36.6830502,23.2296093 34.5894493,23.2296093 C32.4958484,23.2296093 30.7986495,21.5324104 30.7986495,19.4388094 C30.7986495,12.5444911 26.5676728,8.59949123 21.319182,8.59949123 C19.2255811,8.59949123 17.5283822,6.90229235 17.5283822,4.80869142 C17.5283822,2.7150905 19.2255811,1.01789161 21.319182,1.01789161 C30.6409025,1.01789161 38.3802491,8.23412652 38.3802491,19.4388094 Z"/>
    <path fill="#12CF96" d="M19.4792897,13.5079817 C19.1537419,14.0065014 18.9645119,14.6021304 18.9645119,15.2419563 C18.9645119,16.9957262 20.3862232,18.4174375 22.1399931,18.4174375 C23.1501732,18.4174375 24.0501825,17.9457396 24.6317794,17.2105852 C24.9515238,17.9546434 25.1286095,18.774489 25.1286095,19.6356952 C25.1286095,23.0309299 22.3762279,25.7833114 18.9809932,25.7833114 C15.5857585,25.7833114 12.833377,23.0309299 12.833377,19.6356952 C12.833377,16.2404605 15.5857585,13.4880789 18.9809932,13.4880789 C19.1487462,13.4880789 19.3149298,13.494798 19.4792897,13.5079817 Z"/>
    <path fill="#4A4A4A" d="M66.5598106,9.30599364 L67.9750425,9.30599364 C74.3435862,9.30599364 77.3509541,12.2249095 77.3509541,18.2396452 L77.3509541,23.4140869 L61.0757869,23.4140869 L61.0757869,25.0062229 C61.0757869,28.3673987 63.1101828,29.9153086 66.3386806,29.9153086 L68.1961725,29.9153086 C70.3632464,29.9153086 72.1322863,29.3845966 72.9283543,27.6155567 L73.1052583,26.9079408 L76.7317901,26.9079408 L76.7317901,29.9595346 C74.7416202,32.2150605 71.3804444,33.2764844 68.0634945,33.2764844 L66.5598106,33.2764844 C59.527877,33.2764844 56.6089611,30.3133426 56.6089611,23.5025389 L56.6089611,18.6819052 C56.6089611,12.4460395 60.0585889,9.30599364 66.5598106,9.30599364 Z M73.2379363,20.1413631 L73.2379363,17.3551252 C73.2379363,14.1708534 71.1593144,12.5787175 67.8865905,12.5787175 L66.5598106,12.5787175 C63.1544088,12.5787175 61.0757869,14.3035314 61.0757869,17.6647072 L61.0757869,20.1413631 L73.2379363,20.1413631 Z M102.376551,29.2519186 L105.781953,29.5615006 L105.781953,32.7899985 L97.7770471,32.7899985 L97.7770471,17.8416112 C97.7770471,13.9939494 97.3347871,13.1978814 94.5485492,13.1978814 L94.0178372,13.1978814 C91.5411814,13.1978814 89.1087515,14.5688874 86.5436436,16.4263793 L86.5436436,29.2961446 C87.5166156,29.3403706 88.5338135,29.4288226 89.6836895,29.5615006 L89.6836895,32.7899985 L78.804094,32.7899985 L78.804094,29.5615006 C79.9539699,29.4288226 80.9711679,29.3403706 81.9441398,29.2961446 L81.9441398,13.4190114 C80.9711679,13.3305594 79.9981959,13.1978814 78.980998,13.1094295 L78.980998,9.83670562 L86.5436436,9.83670562 L86.5436436,13.6843674 C89.4625595,11.4730675 92.6468313,9.30599364 96.2733631,9.30599364 L96.7598491,9.30599364 C100.607511,9.30599364 102.376551,10.9865816 102.376551,15.4534073 L102.376551,29.2519186 Z M115.126274,1.83180002 L115.126274,29.2961446 C116.099246,29.3403706 117.116444,29.4288226 118.26632,29.5615006 L118.26632,32.7899985 L107.386725,32.7899985 L107.386725,29.5615006 C108.536601,29.4288226 109.553798,29.3403706 110.52677,29.2961446 L110.52677,5.36987984 C109.553798,5.28142784 108.580827,5.19297585 107.563629,5.06029785 L107.563629,1.83180002 L115.126274,1.83180002 Z M144.959869,9.83670562 L144.959869,13.1094295 C143.633089,13.2863334 142.527439,13.3747854 141.466015,13.4632374 L131.470939,36.4165303 C132.620815,36.4165303 133.195753,36.5049823 134.168725,36.5492083 L134.168725,39.8219321 L122.581514,39.8219321 L122.581514,36.5492083 C123.996746,36.4607563 125.72156,36.4165303 127.004114,36.3723043 L128.37512,33.2322584 L119.839502,13.3747854 C118.954982,13.3305594 118.114688,13.1978814 117.053264,13.1094295 L117.053264,9.83670562 L128.330894,9.83670562 L128.330894,13.1094295 C127.092566,13.2421074 126.031142,13.3305594 124.660136,13.3747854 L130.719097,28.5000767 L130.807549,28.5000767 L137.397223,13.3747854 C136.468477,13.3305594 135.583957,13.2421074 134.478307,13.1094295 L134.478307,9.83670562 L144.959869,9.83670562 Z M156.938796,29.3845966 L157.33683,29.3845966 C158.88474,29.3845966 159.946164,29.3845966 161.5383,29.2519186 L161.5383,31.9054785 C159.680808,32.7457725 157.33683,33.2764844 155.081304,33.2764844 L154.594818,33.2764844 C151.14519,33.2764844 149.508828,31.4189925 149.508828,27.1290708 L149.508828,13.2863334 L146.589913,13.2863334 L146.589913,9.83670562 L148.889665,9.83670562 C149.685732,9.83670562 149.906862,9.57134963 149.906862,8.86373367 L149.906862,3.51238793 C151.720128,3.20280595 152.648874,3.11435395 154.108332,3.07012795 L154.108332,9.83670562 L160.87491,9.83670562 L160.87491,13.2863334 L154.108332,13.2863334 L154.108332,24.9619969 C154.108332,28.5000767 154.594818,29.3845966 156.938796,29.3845966 Z M196.147154,15.7629893 L196.147154,31.0651846 C196.545188,31.1094106 197.606611,31.1536366 200.083267,31.2863145 L200.083267,32.7899985 L194.024306,32.7899985 L194.024306,16.7359613 C194.024306,12.6229435 193.360916,11.6499715 190.176644,11.6499715 L189.645932,11.6499715 C186.328982,11.6499715 183.14471,13.5516894 179.739308,16.1167973 L179.739308,31.1094106 C180.844958,31.1536366 181.950608,31.1978626 183.277388,31.2863145 L183.277388,32.7899985 L174.078381,32.7899985 L174.078381,31.2863145 C175.405161,31.1978626 176.510811,31.1536366 177.61646,31.1094106 L177.61646,3.55661393 C176.510811,3.46816193 175.449387,3.42393594 174.343737,3.33548394 L174.343737,1.83180002 L179.739308,1.83180002 L179.739308,14.6573394 C183.056258,12.0922315 186.417434,9.88093161 190.397774,9.88093161 L190.88426,9.88093161 C194.731922,9.88093161 196.147154,11.1192596 196.147154,15.7629893 Z M210.438469,9.88093161 L211.853701,9.88093161 C217.60308,9.88093161 220.433544,12.5787175 220.433544,17.8858372 L220.433544,22.573793 L203.450761,22.573793 L203.450761,25.2273528 C203.450761,29.4730486 205.838965,31.5516705 210.084661,31.5516705 L212.074831,31.5516705 C214.772617,31.5516705 216.983916,30.7556026 218.089566,28.6327547 L218.222244,28.1904947 L219.81438,28.1904947 L219.81438,29.5615006 C218.354922,32.0381565 215.259103,33.1880325 212.119057,33.1880325 L210.173113,33.1880325 C204.202603,33.1880325 201.372139,30.4460206 201.372139,24.8735449 L201.372139,18.3280972 C201.372139,12.9325255 204.689089,9.88093161 210.438469,9.88093161 Z M218.4876,21.0258831 L218.4876,17.7531592 C218.4876,13.5959154 216.099397,11.4730675 211.853701,11.4730675 L210.438469,11.4730675 C206.060095,11.4730675 203.450761,13.8170454 203.450761,18.1511932 L203.450761,21.0258831 L218.4876,21.0258831 Z M242.047421,31.0651846 L245.585501,31.2420885 L245.585501,32.7899985 L239.924573,32.7899985 L239.924573,29.2076926 C236.696076,31.7285745 234.484776,33.1438065 230.504436,33.1438065 L229.664142,33.1438065 C225.020412,33.1438065 223.560954,32.1266085 223.560954,27.5271047 L223.560954,26.0676468 C223.560954,21.1143351 225.949158,20.4951711 229.708368,20.0971371 C233.246448,19.7875551 237.182561,19.4779731 239.924573,19.2568431 L239.924573,17.8416112 C239.924573,12.6671695 238.155533,11.4730675 233.865612,11.4730675 C231.698538,11.4730675 228.9123,11.7826495 226.656774,12.6229435 L226.47987,15.8514413 L224.887734,15.8514413 L224.887734,11.3403895 C227.36439,10.4116436 231.477408,9.88093161 233.644482,9.88093161 L234.971262,9.88093161 C240.322607,9.88093161 242.047421,12.5787175 242.047421,17.5762552 L242.047421,31.0651846 Z M230.371758,31.5074445 L231.167826,31.5074445 C234.484776,31.5074445 236.740302,30.1806646 239.924573,27.6597827 L239.924573,20.4951711 C237.757499,20.6720751 232.89264,21.0701091 230.327532,21.423917 C226.745226,21.821951 225.772254,22.573793 225.772254,26.0234208 L225.772254,27.2175227 C225.772254,30.6229246 226.701,31.5074445 230.371758,31.5074445 Z M253.527227,1.83180002 L253.527227,31.1094106 C254.632877,31.1536366 255.738527,31.1978626 257.065306,31.2863145 L257.065306,32.7899985 L247.866299,32.7899985 L247.866299,31.2863145 C249.193079,31.1978626 250.298729,31.1536366 251.404379,31.1094106 L251.404379,3.55661393 C250.298729,3.46816193 249.237305,3.42393594 248.131655,3.33548394 L248.131655,1.83180002 L253.527227,1.83180002 Z M265.954732,31.3747665 L266.352766,31.3747665 C267.944902,31.3747665 268.873648,31.3747665 270.51001,31.1978626 L270.51001,32.5688685 C268.652518,33.0553545 267.325738,33.1880325 265.556698,33.1880325 L265.114438,33.1880325 C261.841714,33.1880325 260.647612,31.6843485 260.647612,27.2617487 L260.647612,12.0922315 L257.551792,12.0922315 L257.551792,10.4116436 L260.072674,10.4116436 C260.647612,10.4116436 260.78029,10.1462876 260.78029,9.61557563 L260.78029,3.64506593 C261.576358,3.51238793 262.062844,3.42393594 262.77046,3.42393594 L262.77046,10.4116436 L269.62549,10.4116436 L269.62549,12.0922315 L262.77046,12.0922315 L262.77046,26.4214548 C262.77046,30.3133426 263.43385,31.3747665 265.954732,31.3747665 Z M295.099665,15.7629893 L295.099665,31.0651846 C295.497699,31.1094106 296.559123,31.1536366 299.035778,31.2863145 L299.035778,32.7899985 L292.976817,32.7899985 L292.976817,16.7359613 C292.976817,12.6229435 292.313427,11.6499715 289.129155,11.6499715 L288.598443,11.6499715 C285.281493,11.6499715 282.097221,13.5516894 278.691819,16.1167973 L278.691819,31.1094106 C279.797469,31.1536366 280.903119,31.1978626 282.229899,31.2863145 L282.229899,32.7899985 L273.030892,32.7899985 L273.030892,31.2863145 C274.357672,31.1978626 275.463322,31.1536366 276.568972,31.1094106 L276.568972,3.55661393 C275.463322,3.46816193 274.401898,3.42393594 273.296248,3.33548394 L273.296248,1.83180002 L278.691819,1.83180002 L278.691819,14.6573394 C282.008769,12.0922315 285.369945,9.88093161 289.350285,9.88093161 L289.836771,9.88093161 C293.684433,9.88093161 295.099665,11.1192596 295.099665,15.7629893 Z"/>
  </g>
</svg>
