<svg xmlns="http://www.w3.org/2000/svg" width="467" height="75" viewBox="0 0 467 75">
  <g fill="none" fill-rule="evenodd" transform="translate(-.328 -.147)">
    <ellipse cx="38.291" cy="37.415" fill="#FFF" rx="37.709" ry="37.103"/>
    <g transform="translate(8.351 7.73)">
      <path fill="#90E532" fill-rule="nonzero" d="M32.2116958,51.7547388 C32.2116958,54.9662832 29.6082247,57.5697543 26.3966803,57.5697543 C23.185136,57.5697543 20.5816649,54.9662832 20.5816649,51.7547388 C20.5816649,41.1789844 14.0914265,35.127429 6.04034043,35.127429 C2.82879608,35.127429 0.225324982,32.5239579 0.225324982,29.3124136 C0.225324982,26.1008692 2.82879608,23.4973981 6.04034043,23.4973981 C20.339684,23.4973981 32.2116958,34.5669664 32.2116958,51.7547388 Z" transform="rotate(180 16.219 40.534)"/>
      <path fill="#009EF9" fill-rule="nonzero" d="M58.8745786,28.9821726 C58.8745786,32.1937169 56.2711075,34.797188 53.0595632,34.797188 C49.8480188,34.797188 47.2445477,32.1937169 47.2445477,28.9821726 C47.2445477,18.4064182 40.7543093,12.3548628 32.7032233,12.3548628 C29.4916789,12.3548628 26.8882078,9.75139169 26.8882078,6.53984733 C26.8882078,3.32830298 29.4916789,0.724831882 32.7032233,0.724831882 C47.0025668,0.724831882 58.8745786,11.7944002 58.8745786,28.9821726 Z"/>
      <path fill="#12CF96" d="M29.8808632,19.8843947 C29.381479,20.6491145 29.0912037,21.5627981 29.0912037,22.5442791 C29.0912037,25.2345289 31.2720822,27.4154073 33.962332,27.4154073 C35.5119294,27.4154073 36.8925266,26.6918317 37.7846854,25.5641186 C38.2751672,26.7054898 38.5468132,27.9631175 38.5468132,29.2841916 C38.5468132,34.4924176 34.3247118,38.714519 29.1164858,38.714519 C23.9082598,38.714519 19.6861584,34.4924176 19.6861584,29.2841916 C19.6861584,24.0759656 23.9082598,19.8538642 29.1164858,19.8538642 C29.3738157,19.8538642 29.6287382,19.8641711 29.8808632,19.8843947 Z"/>
    </g>
    <path fill="#FFF" d="M110.468787,20.801734 L112.639726,20.801734 C122.408952,20.801734 127.022198,25.2792959 127.022198,34.5057871 L127.022198,42.4432831 L102.056398,42.4432831 L102.056398,44.8855896 C102.056398,50.04157 105.177123,52.4160346 110.129578,52.4160346 L112.978936,52.4160346 C116.303186,52.4160346 119.01686,51.6019325 120.238013,48.8882586 L120.509381,47.8027891 L126.072412,47.8027891 L126.072412,52.4838765 C123.019529,55.9438107 117.863549,57.572015 112.77541,57.572015 L110.468787,57.572015 C99.6819337,57.572015 95.2043718,53.0266113 95.2043718,42.5789668 L95.2043718,35.1842055 C95.2043718,25.6185051 100.496036,20.801734 110.468787,20.801734 Z M120.712906,37.4229865 L120.712906,33.1489501 C120.712906,28.2643371 117.524339,25.8220306 112.504043,25.8220306 L110.468787,25.8220306 C105.244965,25.8220306 102.056398,28.4678627 102.056398,33.623843 L102.056398,37.4229865 L120.712906,37.4229865 Z M165.410992,51.3984069 L170.634814,51.8732999 L170.634814,56.8257547 L158.35544,56.8257547 L158.35544,33.8952104 C158.35544,27.9929697 157.677021,26.7718165 153.402985,26.7718165 L152.588883,26.7718165 C148.789739,26.7718165 145.058438,28.8749138 141.123611,31.7242713 L141.123611,51.4662488 C142.616131,51.5340906 144.176494,51.6697743 145.940382,51.8732999 L145.940382,56.8257547 L129.251287,56.8257547 L129.251287,51.8732999 C131.015175,51.6697743 132.575538,51.5340906 134.068058,51.4662488 L134.068058,27.1110257 C132.575538,26.975342 131.083017,26.7718165 129.522655,26.6361328 L129.522655,21.6158361 L141.123611,21.6158361 L141.123611,27.5180768 C145.601172,24.1259845 150.485785,20.801734 156.048817,20.801734 L156.795077,20.801734 C162.697318,20.801734 165.410992,23.3797242 165.410992,30.2317507 L165.410992,51.3984069 Z M184.968827,9.33646184 L184.968827,51.4662488 C186.461348,51.5340906 188.02171,51.6697743 189.785598,51.8732999 L189.785598,56.8257547 L173.096504,56.8257547 L173.096504,51.8732999 C174.860392,51.6697743 176.420754,51.5340906 177.913275,51.4662488 L177.913275,14.7638096 C176.420754,14.6281259 174.928234,14.4924422 173.367871,14.2889167 L173.367871,9.33646184 L184.968827,9.33646184 Z M230.732999,21.6158361 L230.732999,26.6361328 C228.697743,26.9075002 227.001697,27.0431839 225.373493,27.1788676 L210.041235,62.3887861 C211.805123,62.3887861 212.687067,62.5244698 214.179588,62.5923117 L214.179588,67.6126084 L196.405024,67.6126084 L196.405024,62.5923117 C198.575963,62.456628 201.221795,62.3887861 203.189209,62.3209443 L205.292306,57.5041732 L192.19883,27.0431839 C190.841993,26.975342 189.552998,26.7718165 187.924793,26.6361328 L187.924793,21.6158361 L205.224464,21.6158361 L205.224464,26.6361328 C203.324892,26.8396584 201.696688,26.975342 199.593591,27.0431839 L208.887924,50.2450955 L209.023608,50.2450955 L219.132043,27.0431839 C217.707364,26.975342 216.350527,26.8396584 214.654481,26.6361328 L214.654481,21.6158361 L230.732999,21.6158361 Z M249.108447,51.6019325 L249.719024,51.6019325 C252.093489,51.6019325 253.721693,51.6019325 256.164,51.3984069 L256.164,55.4689178 C253.314642,56.7579128 249.719024,57.572015 246.25909,57.572015 L245.51283,57.572015 C240.221165,57.572015 237.711017,54.7226574 237.711017,48.1419983 L237.711017,26.9075002 L233.233455,26.9075002 L233.233455,21.6158361 L236.761231,21.6158361 C237.982385,21.6158361 238.321594,21.2087851 238.321594,20.1233155 L238.321594,11.914452 C241.103109,11.4395591 242.527788,11.3038754 244.766569,11.2360336 L244.766569,21.6158361 L255.146372,21.6158361 L255.146372,26.9075002 L244.766569,26.9075002 L244.766569,44.8177478 C244.766569,50.2450955 245.51283,51.6019325 249.108447,51.6019325 Z M309.253329,30.7066436 L309.253329,54.1799227 C309.863905,54.2477645 311.49211,54.3156064 315.291253,54.5191319 L315.291253,56.8257547 L305.99692,56.8257547 L305.99692,32.1991643 C305.99692,25.8898725 304.979292,24.3973519 300.094679,24.3973519 L299.280577,24.3973519 C294.192439,24.3973519 289.307826,27.3145513 284.084003,31.2493784 L284.084003,54.2477645 C285.78005,54.3156064 287.476096,54.3834482 289.511351,54.5191319 L289.511351,56.8257547 L275.400247,56.8257547 L275.400247,54.5191319 C277.435502,54.3834482 279.131549,54.3156064 280.827595,54.2477645 L280.827595,11.9822939 C279.131549,11.8466102 277.503344,11.7787683 275.807298,11.6430846 L275.807298,9.33646184 L284.084003,9.33646184 L284.084003,29.0105975 C289.172142,25.0757703 294.328122,21.683678 300.433889,21.683678 L301.180149,21.683678 C307.08239,21.683678 309.253329,23.5832497 309.253329,30.7066436 Z M331.175937,21.683678 L333.346876,21.683678 C342.166316,21.683678 346.508194,25.8220306 346.508194,33.9630523 L346.508194,41.1542881 L320.456925,41.1542881 L320.456925,45.2247989 C320.456925,51.7376162 324.120385,54.926183 330.633202,54.926183 L333.686085,54.926183 C337.824438,54.926183 341.21653,53.7050297 342.912576,50.4486211 L343.116102,49.7702026 L345.558408,49.7702026 L345.558408,51.8732999 C343.319627,55.6724433 338.570698,57.4363313 333.753927,57.4363313 L330.768886,57.4363313 C321.610236,57.4363313 317.268358,53.2301368 317.268358,44.6820641 L317.268358,34.6414707 C317.268358,26.3647654 322.356497,21.683678 331.175937,21.683678 Z M343.523153,38.7798234 L343.523153,33.7595267 C343.523153,27.3823931 339.859693,24.1259845 333.346876,24.1259845 L331.175937,24.1259845 C324.459594,24.1259845 320.456925,27.7216024 320.456925,34.3701034 L320.456925,38.7798234 L343.523153,38.7798234 Z M379.663474,54.1799227 L385.090822,54.4512901 L385.090822,56.8257547 L376.407065,56.8257547 L376.407065,51.3305651 C371.454611,55.1975504 368.062518,57.3684895 361.956752,57.3684895 L360.667757,57.3684895 C353.544363,57.3684895 351.305582,55.808127 351.305582,48.7525749 L351.305582,46.513794 C351.305582,38.9155071 354.969042,37.9657212 360.735599,37.3551446 C366.162947,36.8802517 372.200871,36.4053588 376.407065,36.0661495 L376.407065,33.8952104 C376.407065,25.9577143 373.693392,24.1259845 367.112732,24.1259845 C363.788482,24.1259845 359.514446,24.6008774 356.054511,25.8898725 L355.783144,30.8423273 L353.340837,30.8423273 L353.340837,23.9224589 C357.139981,22.4977801 363.449273,21.683678 366.773523,21.683678 L368.808779,21.683678 C377.017642,21.683678 379.663474,25.8220306 379.663474,33.4881594 L379.663474,54.1799227 Z M361.753226,54.8583411 L362.97438,54.8583411 C368.062518,54.8583411 371.522452,52.8230857 376.407065,48.9561004 L376.407065,37.9657212 C373.082815,38.2370886 365.620212,38.8476653 361.685385,39.3904 C356.190195,40.0009767 354.697674,41.1542881 354.697674,46.4459521 L354.697674,48.277682 C354.697674,53.5015042 356.122353,54.8583411 361.753226,54.8583411 Z M397.273279,9.33646184 L397.273279,54.2477645 C398.969325,54.3156064 400.665372,54.3834482 402.700627,54.5191319 L402.700627,56.8257547 L388.589523,56.8257547 L388.589523,54.5191319 C390.624778,54.3834482 392.320824,54.3156064 394.016871,54.2477645 L394.016871,11.9822939 C392.320824,11.8466102 390.69262,11.7787683 388.996574,11.6430846 L388.996574,9.33646184 L397.273279,9.33646184 Z M416.336838,54.6548156 L416.947415,54.6548156 C419.389721,54.6548156 420.8144,54.6548156 423.324548,54.3834482 L423.324548,56.4865455 C420.475191,57.2328058 418.439935,57.4363313 415.726262,57.4363313 L415.047843,57.4363313 C410.027546,57.4363313 408.195817,55.1297085 408.195817,48.3455238 L408.195817,25.0757703 L403.446887,25.0757703 L403.446887,22.4977801 L407.313873,22.4977801 C408.195817,22.4977801 408.399342,22.0907291 408.399342,21.2766269 L408.399342,12.1179776 C409.620495,11.914452 410.366756,11.7787683 411.452225,11.7787683 L411.452225,22.4977801 L421.967711,22.4977801 L421.967711,25.0757703 L411.452225,25.0757703 L411.452225,47.0565287 C411.452225,53.0266113 412.469853,54.6548156 416.336838,54.6548156 Z M461.044615,30.7066436 L461.044615,54.1799227 C461.655192,54.2477645 463.283396,54.3156064 467.08254,54.5191319 L467.08254,56.8257547 L457.788207,56.8257547 L457.788207,32.1991643 C457.788207,25.8898725 456.770579,24.3973519 451.885966,24.3973519 L451.071864,24.3973519 C445.983725,24.3973519 441.099112,27.3145513 435.87529,31.2493784 L435.87529,54.2477645 C437.571336,54.3156064 439.267382,54.3834482 441.302638,54.5191319 L441.302638,56.8257547 L427.191534,56.8257547 L427.191534,54.5191319 C429.226789,54.3834482 430.922835,54.3156064 432.618881,54.2477645 L432.618881,11.9822939 C430.922835,11.8466102 429.294631,11.7787683 427.598585,11.6430846 L427.598585,9.33646184 L435.87529,9.33646184 L435.87529,29.0105975 C440.963429,25.0757703 446.119409,21.683678 452.225175,21.683678 L452.971436,21.683678 C458.873676,21.683678 461.044615,23.5832497 461.044615,30.7066436 Z"/>
  </g>
</svg>
